<svg xmlns="http://www.w3.org/2000/svg" viewBox="0 0 16 16" shape-rendering="crispEdges">
  <defs>
    <linearGradient id="bg" x1="0" y1="0" x2="1" y2="1">
      <stop offset="0" stop-color="#7c3aed"/>
      <stop offset="1" stop-color="#312e81"/>
    </linearGradient>
  </defs>
  <!-- Circular dark navy-purple backdrop -->
  <circle cx="8" cy="8" r="7" fill="url(#bg)"/>
  <!-- Pixel-art 4-sided star (white) -->
  <!-- Vertical arm -->
  <rect x="8" y="3" width="1" height="2" fill="#ffffff"/>
  <rect x="8" y="5" width="1" height="1" fill="#f8fafc"/>
  <rect x="8" y="6" width="1" height="1" fill="#ffffff"/>
  <rect x="8" y="7" width="1" height="1" fill="#e2e8f0"/>
  <rect x="8" y="8" width="1" height="1" fill="#ffffff"/>
  <rect x="8" y="9" width="1" height="1" fill="#f8fafc"/>
  <rect x="8" y="10" width="1" height="2" fill="#ffffff"/>
  <!-- Horizontal arm -->
  <rect x="3" y="8" width="2" height="1" fill="#ffffff"/>
  <rect x="5" y="8" width="1" height="1" fill="#f8fafc"/>
  <rect x="6" y="8" width="1" height="1" fill="#ffffff"/>
  <rect x="7" y="8" width="1" height="1" fill="#e2e8f0"/>
  <rect x="9" y="8" width="1" height="1" fill="#e2e8f0"/>
  <rect x="10" y="8" width="1" height="1" fill="#ffffff"/>
  <rect x="11" y="8" width="2" height="1" fill="#ffffff"/>
  <!-- Center bright pixel -->
  <rect x="8" y="8" width="1" height="1" fill="#f1f5f9"/>
</svg>
